<svg xmlns="http://www.w3.org/2000/svg" width="27" height="25" viewBox="0 0 27 25">
  <metadata><?xpacket begin="﻿" id="W5M0MpCehiHzreSzNTczkc9d"?>
<x:xmpmeta xmlns:x="adobe:ns:meta/" x:xmptk="Adobe XMP Core 5.6-c142 79.160924, 2017/07/13-01:06:39        ">
   <rdf:RDF xmlns:rdf="http://www.w3.org/1999/02/22-rdf-syntax-ns#">
      <rdf:Description rdf:about=""/>
   </rdf:RDF>
</x:xmpmeta>
                                                                                                    
                                                                                                    
                                                                                                    
                                                                                                    
                                                                                                    
                                                                                                    
                                                                                                    
                                                                                                    
                                                                                                    
                                                                                                    
                                                                                                    
                                                                                                    
                                                                                                    
                                                                                                    
                                                                                                    
                                                                                                    
                                                                                                    
                                                                                                    
                                                                                                    
                                                                                                    
                           
<?xpacket end="w"?></metadata>
<defs>
    <style>
      .cls-1 {
        fill: #a1b1bc;
        fill-rule: evenodd;
      }
    </style>
  </defs>
  <path class="cls-1" d="M1537.44,45.334l-4.69-6.029a1.693,1.693,0,1,0-1.56,1.029,1.643,1.643,0,0,0,.22-0.015l3.9,5.015h-11.62l3.9-5.015a1.643,1.643,0,0,0,.22.015,1.647,1.647,0,1,0-1.56-1.029l-4.69,6.029H1516v3.334h1.69L1519.38,62h20.25l1.68-13.333H1543V45.334h-5.56Zm-13,13.334h-3.38V55.334h3.38v3.334Zm0-6.667h-3.38V48.668h3.38V52Zm6.75,6.667h-3.38V55.334h3.38v3.334Zm0-6.667h-3.38V48.668h3.38V52Zm6.75,6.667h-3.38V55.334h3.38v3.334Zm0-6.667h-3.38V48.668h3.38V52Z" transform="translate(-1516 -37)"/>
</svg>
