<svg xmlns="http://www.w3.org/2000/svg" width="28.53" height="28.625" viewBox="0 0 28.53 28.625">
  <metadata><?xpacket begin="﻿" id="W5M0MpCehiHzreSzNTczkc9d"?>
<x:xmpmeta xmlns:x="adobe:ns:meta/" x:xmptk="Adobe XMP Core 5.6-c142 79.160924, 2017/07/13-01:06:39        ">
   <rdf:RDF xmlns:rdf="http://www.w3.org/1999/02/22-rdf-syntax-ns#">
      <rdf:Description rdf:about=""/>
   </rdf:RDF>
</x:xmpmeta>
                                                                                                    
                                                                                                    
                                                                                                    
                                                                                                    
                                                                                                    
                                                                                                    
                                                                                                    
                                                                                                    
                                                                                                    
                                                                                                    
                                                                                                    
                                                                                                    
                                                                                                    
                                                                                                    
                                                                                                    
                                                                                                    
                                                                                                    
                                                                                                    
                                                                                                    
                                                                                                    
                           
<?xpacket end="w"?></metadata>
<defs>
    <style>
      .cls-1 {
        fill: #a1b1bc;
        fill-rule: evenodd;
      }
    </style>
  </defs>
  <path class="cls-1" d="M1494.93,61.8l-9.53-8.337a10.677,10.677,0,0,0-1.18-13.863,10.308,10.308,0,0,0-14.7.2,10.652,10.652,0,0,0,.31,14.9,10.323,10.323,0,0,0,13.46.905l8.58,9.4a0.665,0.665,0,0,0,.98.017l2.12-2.234A0.677,0.677,0,0,0,1494.93,61.8Zm-12.8-9.654a7.006,7.006,0,0,1-9.99.136,7.238,7.238,0,0,1-.22-10.125,7,7,0,0,1,9.99-.136A7.239,7.239,0,0,1,1482.13,52.143Z" transform="translate(-1466.63 -36.594)"/>
</svg>
